P3
47 1
255
35 35 35 39 39 39 21 21 21 111 111 111 247 247 247 231 231 231 235 235 235 235 235 235 236 236 236 235 235 235 235 235 235 235 235 235 235 235 235 235 235 235 235 235 235 234 234 234 233 233 233 235 235 235 236 236 236 234 234 234 233 233 233 233 233 233 235 235 235 235 235 235 235 235 235 236 236 236 237 237 237 238 238 238 239 239 239 239 239 239 239 239 239 238 238 238 231 231 231 234 234 234 166 166 166 142 142 142 188 188 188 214 214 214 219 219 219 227 227 227 232 232 232 236 236 236 235 235 235 233 233 233 233 233 233 233 233 233 228 228 228 
