P3
60 1
255
215 215 215 216 216 216 216 216 216 218 218 218 214 214 214 205 205 205 206 206 206 206 206 206 207 207 207 207 207 207 207 207 207 208 208 208 210 210 210 210 210 210 211 211 211 211 211 211 211 211 211 211 211 211 211 211 211 212 212 212 212 212 212 212 212 212 212 212 212 212 212 212 211 211 211 211 211 211 211 211 211 211 211 211 211 211 211 211 211 211 210 210 210 210 210 210 210 210 210 209 209 209 209 209 209 209 209 209 208 208 208 207 207 207 207 207 207 206 206 206 206 206 206 205 205 205 204 204 204 204 204 204 203 203 203 207 207 207 201 201 201 200 200 200 205 205 205 202 202 202 200 200 200 201 201 201 200 200 200 199 199 199 198 198 198 197 197 197 195 195 195 195 195 195 193 193 193 192 192 192 
