P3
60 1
255
64 64 64 65 65 65 63 63 63 76 76 76 187 187 187 80 80 80 63 63 63 67 67 67 68 68 68 67 67 67 67 67 67 70 70 70 69 69 69 70 70 70 71 71 71 71 71 71 71 71 71 72 72 72 72 72 72 73 73 73 73 73 73 73 73 73 73 73 73 74 74 74 73 73 73 72 72 72 73 73 73 74 74 74 73 73 73 73 73 73 74 74 74 73 73 73 75 75 75 75 75 75 75 75 75 75 75 75 75 75 75 75 75 75 75 75 75 77 77 77 77 77 77 77 77 77 71 71 71 105 105 105 174 174 174 198 198 198 239 239 239 231 231 231 232 232 232 232 232 232 232 232 232 232 232 232 232 232 232 232 232 232 231 231 231 230 230 230 231 231 231 230 230 230 230 230 230 229 229 229 
