P3
60 1
255
60 60 60 60 60 60 64 64 64 52 52 52 148 148 148 244 244 244 234 234 234 240 240 240 243 243 243 245 245 245 247 247 247 247 247 247 246 246 246 245 245 245 244 244 244 244 244 244 246 246 246 246 246 246 246 246 246 246 246 246 245 245 245 243 243 243 241 241 241 240 240 240 240 240 240 240 240 240 241 241 241 243 243 243 244 244 244 245 245 245 245 245 245 244 244 244 242 242 242 242 242 242 241 241 241 240 240 240 240 240 240 240 240 240 239 239 239 239 239 239 238 238 238 239 239 239 241 241 241 239 239 239 247 247 247 203 203 203 100 100 100 238 238 238 245 245 245 219 219 219 180 180 180 177 177 177 233 233 233 244 244 244 242 242 242 244 244 244 244 244 244 243 243 243 241 241 241 241 241 241 
