P3
60 1
255
45 45 45 44 44 44 45 45 45 46 46 46 53 53 53 192 192 192 235 235 235 234 234 234 236 236 236 236 236 236 237 237 237 235 235 235 234 234 234 235 235 235 235 235 235 234 234 234 234 234 234 235 235 235 235 235 235 235 235 235 235 235 235 235 235 235 235 235 235 235 235 235 235 235 235 235 235 235 235 235 235 236 236 236 235 235 235 235 235 235 235 235 235 235 235 235 235 235 235 235 235 235 235 235 235 235 235 235 235 235 235 236 236 236 236 236 236 236 236 236 236 236 236 236 236 236 235 235 235 239 239 239 222 222 222 214 214 214 239 239 239 235 235 235 235 235 235 235 235 235 235 235 235 235 235 235 236 236 236 236 236 236 236 236 236 235 235 235 234 234 234 235 235 235 234 234 234 235 235 235 
