P3
60 1
255
19 19 19 17 17 17 19 19 19 22 22 22 21 21 21 135 135 135 209 209 209 202 202 202 204 204 204 205 205 205 206 206 206 207 207 207 208 208 208 209 209 209 208 208 208 209 209 209 209 209 209 209 209 209 210 210 210 210 210 210 210 210 210 210 210 210 211 211 211 211 211 211 211 211 211 212 212 212 212 212 212 212 212 212 212 212 212 212 212 212 212 212 212 212 212 212 212 212 212 212 212 212 211 211 211 211 211 211 211 211 211 211 211 211 211 211 211 211 211 211 210 210 210 210 210 210 211 211 211 210 210 210 212 212 212 197 197 197 183 183 183 213 213 213 207 207 207 207 207 207 207 207 207 207 207 207 206 206 206 205 205 205 204 204 204 204 204 204 203 203 203 202 202 202 201 201 201 201 201 201 
