P3
60 1
255
200 200 200 202 202 202 204 204 204 204 204 204 206 206 206 207 207 207 208 208 208 209 209 209 210 210 210 211 211 211 211 211 211 211 211 211 212 212 212 213 213 213 213 213 213 213 213 213 214 214 214 215 215 215 216 216 216 215 215 215 215 215 215 215 215 215 215 215 215 215 215 215 216 216 216 216 216 216 216 216 216 216 216 216 216 216 216 216 216 216 216 216 216 216 216 216 215 215 215 215 215 215 215 215 215 215 215 215 215 215 215 215 215 215 215 215 215 214 214 214 215 215 215 214 214 214 212 212 212 225 225 225 91 91 91 159 159 159 223 223 223 210 210 210 211 211 211 211 211 211 210 210 210 210 210 210 209 209 209 208 208 208 207 207 207 206 206 206 205 205 205 205 205 205 203 203 203 202 202 202 
