P3
60 1
255
23 23 23 22 22 22 27 27 27 15 15 15 107 107 107 209 209 209 196 196 196 200 200 200 201 201 201 202 202 202 203 203 203 203 203 203 204 204 204 204 204 204 205 205 205 206 206 206 206 206 206 207 207 207 207 207 207 207 207 207 207 207 207 208 208 208 208 208 208 209 209 209 209 209 209 209 209 209 209 209 209 209 209 209 210 210 210 209 209 209 209 209 209 209 209 209 209 209 209 208 208 208 208 208 208 209 209 209 209 209 209 208 208 208 207 207 207 207 207 207 206 206 206 206 206 206 204 204 204 210 210 210 65 65 65 9 9 9 19 19 19 19 19 19 8 8 8 139 139 139 213 213 213 200 200 200 202 202 202 202 202 202 201 201 201 200 200 200 200 200 200 200 200 200 200 200 200 193 193 193 
