P3
60 1
255
36 36 36 35 35 35 40 40 40 21 21 21 113 113 113 245 245 245 230 230 230 233 233 233 234 234 234 234 234 234 235 235 235 235 235 235 234 234 234 234 234 234 234 234 234 234 234 234 234 234 234 234 234 234 234 234 234 234 234 234 232 232 232 233 233 233 235 235 235 235 235 235 233 233 233 233 233 233 232 232 232 233 233 233 234 234 234 235 235 235 235 235 235 236 236 236 236 236 236 236 236 236 238 238 238 239 239 239 239 239 239 239 239 239 239 239 239 238 238 238 238 238 238 233 233 233 225 225 225 232 232 232 112 112 112 170 170 170 185 185 185 213 213 213 218 218 218 223 223 223 229 229 229 233 233 233 236 236 236 236 236 236 235 235 235 233 233 233 232 232 232 233 233 233 231 231 231 226 226 226 
