P3
60 1
255
203 203 203 204 204 204 208 208 208 202 202 202 195 195 195 211 211 211 198 198 198 195 195 195 196 196 196 197 197 197 197 197 197 198 198 198 199 199 199 199 199 199 199 199 199 199 199 199 200 200 200 200 200 200 201 201 201 202 202 202 202 202 202 202 202 202 203 203 203 204 204 204 203 203 203 204 204 204 204 204 204 203 203 203 204 204 204 204 204 204 204 204 204 204 204 204 205 205 205 204 204 204 205 205 205 204 204 204 203 203 203 203 203 203 203 203 203 203 203 203 203 203 203 203 203 203 202 202 202 200 200 200 207 207 207 215 215 215 213 213 213 212 212 212 212 212 212 212 212 212 213 213 213 212 212 212 211 211 211 210 210 210 209 209 209 209 209 209 208 208 208 206 206 206 208 208 208 195 195 195 
