P3
60 1
255
222 222 222 229 229 229 225 225 225 227 227 227 222 222 222 90 90 90 63 63 63 70 70 70 67 67 67 69 69 69 68 68 68 68 68 68 69 69 69 70 70 70 69 69 69 70 70 70 72 72 72 70 70 70 70 70 70 72 72 72 71 71 71 71 71 71 71 71 71 70 70 70 71 71 71 71 71 71 71 71 71 72 72 72 73 73 73 73 73 73 72 72 72 71 71 71 73 73 73 72 72 72 71 71 71 68 68 68 83 83 83 218 218 218 231 231 231 229 229 229 228 228 228 229 229 229 227 227 227 231 231 231 206 206 206 71 71 71 66 66 66 67 67 67 64 64 64 63 63 63 63 63 63 63 63 63 64 64 64 62 62 62 60 60 60 61 61 61 59 59 59 59 59 59 55 55 55 79 79 79 
