P3
60 1
255
224 224 224 225 225 225 224 224 224 224 224 224 224 224 224 222 222 222 224 224 224 223 223 223 223 223 223 223 223 223 223 223 223 223 223 223 223 223 223 223 223 223 224 224 224 224 224 224 223 223 223 223 223 223 222 222 222 223 223 223 223 223 223 223 223 223 222 222 222 222 222 222 223 223 223 222 222 222 222 222 222 222 222 222 222 222 222 221 221 221 221 221 221 221 221 221 220 220 220 220 220 220 221 221 221 220 220 220 219 219 219 219 219 219 219 219 219 218 218 218 218 218 218 218 218 218 217 217 217 217 217 217 215 215 215 214 214 214 214 214 214 214 214 214 213 213 213 213 213 213 212 212 212 210 210 210 210 210 210 209 209 209 207 207 207 206 206 206 205 205 205 205 205 205 205 205 205 199 199 199 
