P3
60 1
255
39 39 39 36 36 36 31 31 31 39 39 39 200 200 200 240 240 240 235 235 235 237 237 237 236 236 236 236 236 236 236 236 236 237 237 237 237 237 237 236 236 236 236 236 236 238 238 238 238 238 238 238 238 238 238 238 238 237 237 237 238 238 238 237 237 237 237 237 237 238 238 238 238 238 238 238 238 238 239 239 239 239 239 239 239 239 239 240 240 240 240 240 240 239 239 239 240 240 240 241 241 241 241 241 241 241 241 241 241 241 241 240 240 240 240 240 240 240 240 240 240 240 240 239 239 239 237 237 237 246 246 246 200 200 200 177 177 177 139 139 139 91 91 91 89 89 89 188 188 188 248 248 248 238 238 238 241 241 241 241 241 241 241 241 241 240 240 240 240 240 240 240 240 240 241 241 241 241 241 241 
