P3
60 1
255
199 199 199 209 209 209 207 207 207 216 216 216 180 180 180 175 175 175 219 219 219 210 210 210 212 212 212 213 213 213 214 214 214 215 215 215 214 214 214 215 215 215 215 215 215 215 215 215 215 215 215 215 215 215 215 215 215 215 215 215 216 216 216 215 215 215 215 215 215 215 215 215 215 215 215 215 215 215 215 215 215 215 215 215 214 214 214 215 215 215 214 214 214 214 214 214 214 214 214 213 213 213 213 213 213 213 213 213 212 212 212 211 211 211 210 210 210 211 211 211 210 210 210 208 208 208 206 206 206 214 214 214 126 126 126 37 37 37 44 44 44 40 40 40 39 39 39 39 39 39 39 39 39 36 36 36 36 36 36 35 35 35 35 35 35 32 32 32 31 31 31 33 33 33 26 26 26 71 71 71 
