P3
60 1
255
203 203 203 205 205 205 207 207 207 209 209 209 198 198 198 194 194 194 194 194 194 195 195 195 196 196 196 197 197 197 198 198 198 199 199 199 199 199 199 200 200 200 201 201 201 201 201 201 201 201 201 202 202 202 203 203 203 202 202 202 202 202 202 203 203 203 203 203 203 203 203 203 204 204 204 204 204 204 203 203 203 204 204 204 204 204 204 204 204 204 205 205 205 205 205 205 205 205 205 205 205 205 205 205 205 205 205 205 205 205 205 205 205 205 205 205 205 205 205 205 204 204 204 204 204 204 204 204 204 204 204 204 215 215 215 207 207 207 213 213 213 207 207 207 200 200 200 200 200 200 200 200 200 199 199 199 198 198 198 197 197 197 197 197 197 197 197 197 196 196 196 196 196 196 195 195 195 193 193 193 
